<svg xmlns="http://www.w3.org/2000/svg" baseProfile="full" height="777.7627052296389" version="1.1" viewBox="4777.123905,-3931.785114,805.049626,777.762705" width="805.0496257863115"><defs><style type="text/css">polyline,line,rect,path,polygon,.polygon{fill:none;stroke:#000;stroke-width:1px;stroke-linejoin:round;}</style></defs><g fill_rule="evenodd" transform="scale(1,-1)"><g class="name id huc" id="gages"><circle class="gages" cx="5459.143187717764" cy="3913.381679481476" id="None" r="1" /><circle class="gages" cx="5562.231562400581" cy="3699.29618452706" id="None" r="1" /><circle class="gages" cx="5338.609738446089" cy="3830.519327247381" id="None" r="1" /><circle class="gages" cx="5439.924817673513" cy="3694.284604281479" id="None" r="1" /><circle class="gages" cx="5163.405111940453" cy="3543.4039504448747" id="None" r="1" /><circle class="gages" cx="5488.151616087437" cy="3419.259337060059" id="None" r="1" /><circle class="gages" cx="5523.590398285023" cy="3378.5667610405144" id="None" r="1" /><circle class="gages" cx="5224.304008041496" cy="3912.8505960866237" id="None" r="1" /><circle class="gages" cx="5270.678317949108" cy="3902.6428768863607" id="None" r="1" /><circle class="gages" cx="5282.842104892751" cy="3760.233684537477" id="None" r="1" /><circle class="gages" cx="5261.510857563994" cy="3752.9878509278296" id="None" r="1" /><circle class="gages" cx="5250.395439391797" cy="3783.413033209991" id="None" r="1" /><circle class="gages" cx="5241.294390141252" cy="3731.504021894719" id="None" r="1" /><circle class="gages" cx="5284.464803564607" cy="3671.1803173798658" id="None" r="1" /><circle class="gages" cx="5330.3798765609545" cy="3613.9363081562497" id="None" r="1" /><circle class="gages" cx="5506.375928862364" cy="3513.563780300568" id="None" r="1" /><circle class="gages" cx="4966.857188811488" cy="3543.1113696658413" id="None" r="1" /><circle class="gages" cx="4963.973691087126" cy="3527.020312545296" id="None" r="1" /><circle class="gages" cx="4973.629673200345" cy="3520.9396550545434" id="None" r="1" /><circle class="gages" cx="5070.3373678777025" cy="3400.596080061532" id="None" r="1" /><circle class="gages" cx="5052.808375652744" cy="3446.420453570113" id="None" r="1" /><circle class="gages" cx="4803.28512940433" cy="3785.6670461578474" id="None" r="1" /><circle class="gages" cx="4810.677090515117" cy="3787.14805030136" id="None" r="1" /><circle class="gages" cx="4916.132301148309" cy="3678.737105753353" id="None" r="1" /><circle class="gages" cx="4863.319482561889" cy="3612.1363022209607" id="None" r="1" /><circle class="gages" cx="4934.639881809263" cy="3403.152749129153" id="None" r="1" /><circle class="gages" cx="4818.946480195618" cy="3367.144511828852" id="None" r="1" /><circle class="gages" cx="4874.8180244089845" cy="3346.210329126781" id="None" r="1" /><circle class="gages" cx="4970.670050825755" cy="3362.146123630387" id="None" r="1" /><circle class="gages" cx="4980.544314407591" cy="3413.8277991666746" id="None" r="1" /><circle class="gages" cx="4956.83402139692" cy="3317.7872976369977" id="None" r="1" /><circle class="gages" cx="5003.816470042665" cy="3273.0588993013585" id="None" r="1" /></g></g></svg>